<?xml version="1.0" encoding="UTF-8"?>
<svg version="1.1" xmlns="http://www.w3.org/2000/svg" width="1024" height="1024">
<path d="M0 0 C337.92 0 675.84 0 1024 0 C1024 337.92 1024 675.84 1024 1024 C686.08 1024 348.16 1024 0 1024 C0 686.08 0 348.16 0 0 Z " fill="#FBFBFB" transform="translate(0,0)"/>
<path d="M0 0 C10.97806678 8.41592477 18.60844536 19.91829697 20.6875 33.8125 C20.95436847 38.21101839 21.01732636 42.59530996 21.00317383 47.00146484 C21.00002772 49.04449589 21.02348318 51.08605478 21.04882812 53.12890625 C21.12954784 69.32339113 16.99111037 84.07705473 5.62109375 96.10546875 C1.97400953 99.32521785 -1.97664162 101.63813779 -6.3125 103.8125 C-7.09882813 104.22757812 -7.88515625 104.64265625 -8.6953125 105.0703125 C-19.40185231 109.86979586 -36.28658181 109.89685175 -47.3125 105.8125 C-60.71009438 100.13919769 -68.95223708 91.69310156 -74.87109375 78.42578125 C-81.30175635 62.30555658 -82.27626351 39.61675359 -75.9375 23.265625 C-72.38223842 15.28739148 -67.65174662 8.79766257 -61.3125 2.8125 C-60.77238281 2.30203125 -60.23226563 1.7915625 -59.67578125 1.265625 C-43.78548143 -11.7027809 -16.60646748 -10.77040877 0 0 Z " fill="#121212" transform="translate(453.3125,258.1875)"/>
<path d="M0 0 C63.57899077 0 63.57899077 0 78.55078125 14.29296875 C86.90161344 24.12939373 90.62503081 36.2673506 91 49 C91.05994141 50.92779297 91.05994141 50.92779297 91.12109375 52.89453125 C91.44818807 68.5507068 88.63514231 82.89431949 78 95 C77.48824219 95.60457031 76.97648437 96.20914063 76.44921875 96.83203125 C65.88163191 108.40845693 51.91783987 110.50821601 37 112 C24.79 112 12.58 112 0 112 C0 75.04 0 38.08 0 0 Z " fill="#121212" transform="translate(259,253)"/>
<path d="M0 0 C65.39735991 0 65.39735991 0 77.20703125 10.9375 C84.36797483 19.1749253 85.5354059 28.49446793 85 39 C84.20500185 47.00211254 80.87564453 53.31736566 75.0390625 58.86328125 C70.98596795 62.11662726 68.17758228 63.22054109 63 64 C67.09809293 71.56024307 71.26708207 79.07697173 75.5 86.5625 C76.04269531 87.52607422 76.58539063 88.48964844 77.14453125 89.48242188 C80.29800218 95.06308701 83.53243578 100.57459063 86.91601562 106.01928711 C88 108 88 108 88 110 C79.42 110 70.84 110 62 110 C53.80961104 95.76432395 45.81189774 81.44647046 38 67 C33.05 67 28.1 67 23 67 C23 81.19 23 95.38 23 110 C15.41 110 7.82 110 0 110 C0 73.7 0 37.4 0 0 Z " fill="#121212" transform="translate(418,460)"/>
<path d="M0 0 C7.92 0 15.84 0 24 0 C29.84777228 6.96163366 29.84777228 6.96163366 31.078125 10.390625 C33.15726457 15.62244679 36.03820648 20.22799334 39 25 C40.03019676 26.71052454 41.05757922 28.42274745 42.08203125 30.13671875 C42.57654785 30.96091309 43.07106445 31.78510742 43.58056641 32.63427734 C44.87011719 34.78352865 46.15966797 36.93277995 47.44921875 39.08203125 C47.82473877 39.70787109 48.20025879 40.33371094 48.5871582 40.97851562 C49.31365392 42.18939555 50.04005555 43.40033192 50.76635742 44.61132812 C52.64665681 47.74616188 54.52900181 50.87974542 56.4140625 54.01171875 C56.81536377 54.67905029 57.21666504 55.34638184 57.63012695 56.03393555 C58.38845392 57.29489097 59.14735462 58.55550163 59.90698242 59.81567383 C61.70575704 62.80805522 63.45171111 65.81785911 65.13671875 68.875 C66.64848775 72.04891202 66.64848775 72.04891202 69 73 C69 48.91 69 24.82 69 0 C75.93 0 82.86 0 90 0 C90 36.96 90 73.92 90 112 C67 112 67 112 61.6328125 106.89453125 C60.34993214 104.53399727 59.22263465 102.24965927 58.125 99.8125 C57.47011508 98.54380444 56.80582153 97.2799269 56.1328125 96.02075195 C54.73532153 93.38440647 53.3849393 90.73088063 52.06347656 88.05566406 C49.05446741 82.04017161 45.56236609 76.30966903 42.1071167 70.54345703 C40.30906506 67.52922504 38.54668284 64.49434649 36.78125 61.4609375 C33.06279377 55.09409768 29.28696449 48.76442787 25.46875 42.45703125 C24 40 24 40 23 38 C22.67 62.42 22.34 86.84 22 112 C14.74 112 7.48 112 0 112 C0 75.04 0 38.08 0 0 Z " fill="#131313" transform="translate(503,253)"/>
<path d="M0 0 C5.94 0 11.88 0 18 0 C18 112.86 18 225.72 18 342 C12.06 342 6.12 342 0 342 C0 229.14 0 116.28 0 0 Z " fill="#111010" transform="translate(664,594)"/>
<path d="M0 0 C5.94 0 11.88 0 18 0 C18 112.86 18 225.72 18 342 C12.06 342 6.12 342 0 342 C0 229.14 0 116.28 0 0 Z " fill="#101010" transform="translate(342,594)"/>
<path d="M0 0 C24.09 0 48.18 0 73 0 C73 5.94 73 11.88 73 18 C56.5 18 40 18 23 18 C23 26.91 23 35.82 23 45 C37.19 45 51.38 45 66 45 C66 50.94 66 56.88 66 63 C51.81 63 37.62 63 23 63 C23 71.91 23 80.82 23 90 C39.5 90 56 90 73 90 C73 96.6 73 103.2 73 110 C48.91 110 24.82 110 0 110 C0 73.7 0 37.4 0 0 Z " fill="#131313" transform="translate(534,460)"/>
<path d="M0 0 C23.43 0 46.86 0 71 0 C71 5.94 71 11.88 71 18 C55.16 18 39.32 18 23 18 C23 27.24 23 36.48 23 46 C36.2 46 49.4 46 63 46 C63 51.94 63 57.88 63 64 C49.8 64 36.6 64 23 64 C23 79.18 23 94.36 23 110 C15.41 110 7.82 110 0 110 C0 73.7 0 37.4 0 0 Z " fill="#121212" transform="translate(317,460)"/>
<path d="M0 0 C29.04 0 58.08 0 88 0 C88 6.27 88 12.54 88 19 C77.44 19 66.88 19 56 19 C56 49.36 56 79.72 56 111 C48.08 111 40.16 111 32 111 C32 80.64 32 50.28 32 19 C21.44 19 10.88 19 0 19 C0 12.73 0 6.46 0 0 Z " fill="#141414" transform="translate(496,664)"/>
<path d="M0 0 C29.37 0 58.74 0 89 0 C89 6.27 89 12.54 89 19 C78.11 19 67.22 19 56 19 C56 49.69 56 80.38 56 112 C48.41 112 40.82 112 33 112 C33 81.31 33 50.62 33 19 C22.11 19 11.22 19 0 19 C0 12.73 0 6.46 0 0 Z " fill="#121212" transform="translate(671,253)"/>
<path d="M0 0 C29.04 0 58.08 0 88 0 C88 6.27 88 12.54 88 19 C77.44 19 66.88 19 56 19 C56 49.03 56 79.06 56 110 C48.41 110 40.82 110 33 110 C33 79.97 33 49.94 33 19 C22.11 19 11.22 19 0 19 C0 12.73 0 6.46 0 0 Z " fill="#141414" transform="translate(631,460)"/>
<path d="M0 0 C6.36035436 4.03637873 10.27165576 10.58894145 12.56005859 17.75341797 C13.50795207 22.59388176 13.26628449 27.59854918 13.29516602 32.51489258 C13.30661682 33.86753864 13.32695806 35.22014202 13.35668945 36.57250977 C13.61819088 48.49200788 12.33835597 58.44263423 3.875 67.34375 C1.10486372 69.79070372 -1.68217274 71.37361409 -5 73 C-5.99 73.495 -5.99 73.495 -7 74 C-15.42459003 74.93310333 -22.05522038 73.99229107 -29 69 C-36.24042542 62.7491829 -40.29465293 55.3103034 -41.36425781 45.74121094 C-41.49897179 42.29752248 -41.49733972 38.88310949 -41.4375 35.4375 C-41.44458984 34.28314453 -41.45167969 33.12878906 -41.45898438 31.93945312 C-41.37046476 19.93483171 -38.94077239 11.22291761 -30.55859375 2.5 C-21.25970943 -6.01341998 -10.65710927 -5.41826094 0 0 Z " fill="#FAFAFB" transform="translate(438,273)"/>
<path d="M0 0 C25.72470588 0 25.72470588 0 35 9 C35.56460938 9.53753906 36.12921875 10.07507813 36.7109375 10.62890625 C44.01421255 18.30625149 44.50448787 27.330023 44.4375 37.5 C44.4674707 39.11455078 44.4674707 39.11455078 44.49804688 40.76171875 C44.49379499 47.74331427 43.43725733 52.91422227 40 59 C39.63205322 59.65524658 39.26410645 60.31049316 38.88500977 60.9855957 C34.31564878 68.68514016 26.220292 71.65134514 18 74 C12.06 74 6.12 74 0 74 C0 49.58 0 25.16 0 0 Z " fill="#FBFBFB" transform="translate(282,271)"/>
<path d="M0 0 C6.27 0 12.54 0 19 0 C19 46.53 19 93.06 19 141 C12.73 141 6.46 141 0 141 C0 94.47 0 47.94 0 0 Z " fill="#121212" transform="translate(556,87)"/>
<path d="M0 0 C7.59 0 15.18 0 23 0 C23 36.63 23 73.26 23 111 C15.41 111 7.82 111 0 111 C0 74.37 0 37.74 0 0 Z " fill="#111010" transform="translate(450,664)"/>
<path d="M0 0 C5.94 0 11.88 0 18 0 C18 46.53 18 93.06 18 141 C12.06 141 6.12 141 0 141 C0 94.47 0 47.94 0 0 Z " fill="#131313" transform="translate(450,87)"/>
<path d="M0 0 C5.94 0 11.88 0 18 0 C18 46.53 18 93.06 18 141 C12.06 141 6.12 141 0 141 C0 94.47 0 47.94 0 0 Z " fill="#101010" transform="translate(664,87)"/>
<path d="M0 0 C5.94 0 11.88 0 18 0 C18 46.53 18 93.06 18 141 C12.06 141 6.12 141 0 141 C0 94.47 0 47.94 0 0 Z " fill="#101010" transform="translate(342,87)"/>
<path d="M0 0 C5.94 0 11.88 0 18 0 C18 45.21 18 90.42 18 137 C12.06 137 6.12 137 0 137 C0 91.79 0 46.58 0 0 Z " fill="#101010" transform="translate(556,799)"/>
<path d="M0 0 C5.94 0 11.88 0 18 0 C18 45.21 18 90.42 18 137 C12.06 137 6.12 137 0 137 C0 91.79 0 46.58 0 0 Z " fill="#131212" transform="translate(450,799)"/>
<path d="M0 0 C5.9090625 -0.0928125 5.9090625 -0.0928125 11.9375 -0.1875 C13.77235962 -0.22846802 13.77235962 -0.22846802 15.64428711 -0.27026367 C23.44459722 -0.3291411 30.48844115 -0.11657611 36.53515625 5.25 C38.37376413 8.70167987 38.50050926 11.10182692 38.4375 15 C38.43621094 16.19625 38.43492187 17.3925 38.43359375 18.625 C37.85516911 23.12733232 36.43794645 25.63854006 33.1640625 28.73828125 C24.1247961 34.00846726 10.04657255 32.15338279 0 32 C0 21.44 0 10.88 0 0 Z " fill="#FBFBFB" transform="translate(441,478)"/>
<path d="M0 0 C6.27 0 12.54 0 19 0 C19 15.84 19 31.68 19 48 C12.73 48 6.46 48 0 48 C0 32.16 0 16.32 0 0 Z " fill="#121212" transform="translate(342,387)"/>
<path d="M0 0 C5.94 0 11.88 0 18 0 C18.64085394 15.34616317 19.1228815 30.63981196 19 46 C12.73 46 6.46 46 0 46 C0 30.82 0 15.64 0 0 Z " fill="#100F0F" transform="translate(450,594)"/>
<path d="M0 0 C5.94 0 11.88 0 18 0 C18 15.51 18 31.02 18 47 C12.06 47 6.12 47 0 47 C0 31.49 0 15.98 0 0 Z " fill="#101010" transform="translate(556,387)"/>
<path d="M0 0 C5.94 0 11.88 0 18 0 C18 15.51 18 31.02 18 47 C12.06 47 6.12 47 0 47 C0 31.49 0 15.98 0 0 Z " fill="#101010" transform="translate(450,387)"/>
<path d="M0 0 C5.94 0 11.88 0 18 0 C18 15.51 18 31.02 18 47 C12.06 47 6.12 47 0 47 C0 31.49 0 15.98 0 0 Z " fill="#111111" transform="translate(664,387)"/>
<path d="M0 0 C5.94 0 11.88 0 18 0 C18 15.18 18 30.36 18 46 C12.06 46 6.12 46 0 46 C0 30.82 0 15.64 0 0 Z " fill="#101010" transform="translate(556,594)"/>
<path d="M0 0 C6.6 0 13.2 0 20 0 C19.30132813 2.02382812 18.60265625 4.04765625 17.8828125 6.1328125 C17.20093373 8.10869796 16.51916295 10.08462064 15.83740234 12.06054688 C15.36616094 13.42614569 14.89480855 14.79170621 14.42333984 16.15722656 C13.74286679 18.12815276 13.06280252 20.09921961 12.3828125 22.0703125 C11.97434082 23.25383301 11.56586914 24.43735352 11.14501953 25.65673828 C10.08028174 28.76559102 9.03916466 31.88250602 8 35 C2.39 35 -3.22 35 -9 35 C-8.2962842 30.07398937 -7.51876507 25.89796859 -6.15234375 21.19140625 C-5.79462891 19.95068359 -5.43691406 18.70996094 -5.06835938 17.43164062 C-4.69150862 16.14189717 -4.31455423 14.85218399 -3.9375 13.5625 C-3.55621014 12.24556727 -3.1753469 10.92851094 -2.79492188 9.61132812 C-1.86747021 6.40633693 -0.93429765 3.2030022 0 0 Z " fill="#121212" transform="translate(627,253)"/>
<path d="M0 0 C6.93 0 13.86 0 21 0 C21 36.96 21 73.92 21 112 C13.41 112 5.82 112 -2 112 C-1.67 111.01 -1.34 110.02 -1 109 C5.27 109 11.54 109 18 109 C18 73.69 18 38.38 18 2 C12.72 2 7.44 2 2 2 C2 25.76 2 49.52 2 74 C0.515 74.495 0.515 74.495 -1 75 C-2.32 73.68 -3.64 72.36 -5 71 C-4.505 70.01 -4.505 70.01 -4 69 C-2.68 70.32 -1.36 71.64 0 73 C0 48.91 0 24.82 0 0 Z " fill="#1D1D1D" transform="translate(572,253)"/>
<path d="M0 0 C28.71 0 57.42 0 87 0 C87 6.27 87 12.54 87 19 C76.44 19 65.88 19 55 19 C55 49.03 55 79.06 55 110 C47.41 110 39.82 110 32 110 C32 81.29 32 52.58 32 23 C32.33 23 32.66 23 33 23 C34.04078225 40.5747875 34.12440436 58.11781794 34.06866455 75.71502686 C34.05823354 79.36990765 34.05382564 83.02479596 34.04882812 86.6796875 C34.03826449 93.78647766 34.02075389 100.89323119 34 108 C40.27 108 46.54 108 53 108 C52.99476318 105.31439941 52.98952637 102.62879883 52.98413086 99.86181641 C52.96758739 91.00493068 52.95652573 82.14804429 52.94818783 73.29114723 C52.94296132 67.91935028 52.93586786 62.54756911 52.92456055 57.17578125 C52.91372346 51.99517028 52.90772141 46.81457452 52.90512276 41.63395309 C52.90327 39.65393204 52.89965222 37.67391185 52.89426994 35.69389725 C52.88704864 32.92823717 52.88600952 30.16264059 52.88647461 27.39697266 C52.88287933 26.57194748 52.87928406 25.7469223 52.87557983 24.89689636 C52.88594784 19.22810432 52.88594784 19.22810432 54 17 C64.56 17 75.12 17 86 17 C86 11.72 86 6.44 86 1 C57.95 1 29.9 1 1 1 C1 6.28 1 11.56 1 17 C8.26 17 15.52 17 23 17 C23 17.33 23 17.66 23 18 C15.41 18 7.82 18 0 18 C0 12.06 0 6.12 0 0 Z " fill="#090909" transform="translate(632,460)"/>
<path d="M0 0 C23.43 0 46.86 0 71 0 C69 2 69 2 66.177948 2.20254517 C64.37259079 2.16923599 64.37259079 2.16923599 62.53076172 2.13525391 C61.85649202 2.12558279 61.18222233 2.11591167 60.48752022 2.10594749 C58.30129946 2.07228041 56.11563317 2.02467422 53.9296875 1.9765625 C52.58147682 1.95375271 51.23325038 1.93185509 49.88500977 1.91088867 C44.88147463 1.8266598 39.87824978 1.72475 34.875 1.625 C23.69625 1.41875 12.5175 1.2125 1 1 C1.33 36.31 1.66 71.62 2 108 C8.27 108 14.54 108 21 108 C20.98839844 104.91914062 20.97679687 101.83828125 20.96484375 98.6640625 C20.95705085 95.68880313 20.95097541 92.71354489 20.94506836 89.73828125 C20.94003148 87.66633599 20.93320175 85.5943943 20.92456055 83.52246094 C20.91246679 80.54881918 20.90676533 77.57522431 20.90234375 74.6015625 C20.89718246 73.67131256 20.89202118 72.74106262 20.88670349 71.78262329 C20.88659019 70.49151138 20.88659019 70.49151138 20.88647461 69.17431641 C20.884254 68.41486725 20.88203339 67.65541809 20.87974548 66.87295532 C21 65 21 65 22 63 C35.2 63 48.4 63 62 63 C62 57.72 62 52.44 62 47 C60.82904785 47.0407666 59.6580957 47.0815332 58.45166016 47.12353516 C54.11715975 47.27173718 49.7823283 47.4064803 45.44726562 47.53710938 C43.56921744 47.5955953 41.69128003 47.65775641 39.81347656 47.72363281 C37.11804368 47.81756025 34.42249184 47.89836718 31.7265625 47.9765625 C30.88380768 48.00875885 30.04105286 48.0409552 29.17276001 48.0741272 C27.11571159 48.12728029 25.05643769 48.073058 23 48 C21 46 21 46 20.75708008 43.12670898 C20.76324341 41.32955444 20.76324341 41.32955444 20.76953125 39.49609375 C20.77146484 38.19865234 20.77339844 36.90121094 20.77539062 35.56445312 C20.78469604 34.54943726 20.78469604 34.54943726 20.79418945 33.51391602 C20.81245948 31.44209529 20.81469905 29.37072103 20.81445312 27.29882812 C20.85991743 17.14008257 20.85991743 17.14008257 22 16 C23.44289787 15.90704185 24.89029785 15.88253487 26.33618164 15.88647461 C27.71750023 15.88658791 27.71750023 15.88658791 29.12672424 15.88670349 C30.12775681 15.89186478 31.12878937 15.89702606 32.16015625 15.90234375 C33.17975937 15.9037587 34.19936249 15.90517365 35.24986267 15.90663147 C38.52077107 15.91224903 41.79161213 15.9248045 45.0625 15.9375 C47.27408756 15.94251274 49.48567618 15.94707604 51.69726562 15.95117188 C57.13153357 15.96222416 62.56576197 15.97897937 68 16 C68 16.33 68 16.66 68 17 C53.15 17 38.3 17 23 17 C23 26.57 23 36.14 23 46 C36.2 46 49.4 46 63 46 C63 51.94 63 57.88 63 64 C49.8 64 36.6 64 23 64 C23 79.18 23 94.36 23 110 C15.41 110 7.82 110 0 110 C0 73.7 0 37.4 0 0 Z " fill="#010101" transform="translate(317,460)"/>
<path d="M0 0 C5.94 0 11.88 0 18 0 C18 45.21 18 90.42 18 137 C12.06 137 6.12 137 0 137 C0 91.79 0 46.58 0 0 Z M1 2 C1 46.22 1 90.44 1 136 C5.95 136 10.9 136 16 136 C16 91.78 16 47.56 16 2 C11.05 2 6.1 2 1 2 Z " fill="#020202" transform="translate(450,799)"/>
<path d="M0 0 C5.94 0 11.88 0 18 0 C18 46.53 18 93.06 18 141 C12.06 141 6.12 141 0 141 C0 94.47 0 47.94 0 0 Z M1 2 C1 47.54 1 93.08 1 140 C6.28 140 11.56 140 17 140 C17.02962461 122.61182049 16.94377237 105.2272155 16.78125 87.83984375 C16.75873185 85.34208767 16.73631358 82.84433069 16.71398926 80.34657288 C16.65579422 73.86466561 16.59626929 67.38277125 16.53643799 60.90087891 C16.47528909 54.24968194 16.41543853 47.59847331 16.35546875 40.94726562 C16.23822791 27.9648322 16.11957782 14.98241209 16 2 C11.05 2 6.1 2 1 2 Z " fill="#010202" transform="translate(450,87)"/>
<path d="M0 0 C16.83 0 33.66 0 51 0 C51 0.33 51 0.66 51 1 C34.83 1 18.66 1 2 1 C2 36.31 2 71.62 2 108 C8.6 108 15.2 108 22 108 C22 94.14 22 80.28 22 66 C30.415 65.505 30.415 65.505 39 65 C35 67 35 67 23 67 C23 81.19 23 95.38 23 110 C15.41 110 7.82 110 0 110 C0 73.7 0 37.4 0 0 Z " fill="#030303" transform="translate(418,460)"/>
<path d="M0 0 C6.27 0 12.54 0 19 0 C19 15.84 19 31.68 19 48 C12.73 48 6.46 48 0 48 C0 32.16 0 16.32 0 0 Z M3 3 C3 16.86 3 30.72 3 45 C7.29 45 11.58 45 16 45 C16 31.14 16 17.28 16 3 C11.71 3 7.42 3 3 3 Z " fill="#252425" transform="translate(342,387)"/>
<path d="M0 0 C0 6.27 0 12.54 0 19 C-10.89 19 -21.78 19 -33 19 C-33 32.2 -33 45.4 -33 59 C-33.33 59 -33.66 59 -34 59 C-34.02464574 53.03686834 -34.042834 47.07376605 -34.05493164 41.1105957 C-34.05997278 39.08031702 -34.06680557 37.05004198 -34.07543945 35.01977539 C-34.08751467 32.10822653 -34.09323034 29.1967255 -34.09765625 26.28515625 C-34.10281754 25.3716188 -34.10797882 24.45808136 -34.11329651 23.51686096 C-34.11349168 21.34424573 -34.06211805 19.17172704 -34 17 C-33 16 -33 16 -30.13256836 15.88647461 C-28.88096924 15.89171143 -27.62937012 15.89694824 -26.33984375 15.90234375 C-25.34314415 15.90446617 -25.34314415 15.90446617 -24.3263092 15.90663147 C-22.19666101 15.91224482 -20.06711661 15.92479946 -17.9375 15.9375 C-16.49674631 15.94251329 -15.05599097 15.94707649 -13.61523438 15.95117188 C-10.07675042 15.96136924 -6.53849187 15.9809417 -3 16 C-3 11.38 -3 6.76 -3 2 C-31.05 2 -59.1 2 -88 2 C-88 1.67 -88 1.34 -88 1 C-58.66117153 0.03899299 -29.35311403 -0.11039617 0 0 Z " fill="#1D1D1D" transform="translate(760,253)"/>
<path d="M0 0 C23.1 0 46.2 0 70 0 C70 5.61 70 11.22 70 17 C54.16 17 38.32 17 22 17 C22 16.01 22 15.02 22 14 C36.85 14 51.7 14 67 14 C67 9.71 67 5.42 67 1 C45.22 1 23.44 1 1 1 C1 36.31 1 71.62 1 108 C0.67 108 0.34 108 0 108 C0 72.36 0 36.72 0 0 Z " fill="#222222" transform="translate(318,461)"/>
<path d="M0 0 C0.33 0 0.66 0 1 0 C1 23.43 1 46.86 1 71 C24.1 71 47.2 71 71 71 C71 65.72 71 60.44 71 55 C54.83 55 38.66 55 22 55 C22 54.67 22 54.34 22 54 C38.83 54 55.66 54 73 54 C73 60.27 73 66.54 73 73 C48.91 73 24.82 73 0 73 C0 48.91 0 24.82 0 0 Z " fill="#030303" transform="translate(534,497)"/>
<path d="M0 0 C24.09 0 48.18 0 73 0 C73 5.94 73 11.88 73 18 C56.17 18 39.34 18 22 18 C22 26.58 22 35.16 22 44 C21.67 44 21.34 44 21 44 C20.97113662 39.52084672 20.95324813 35.04171709 20.9375 30.5625 C20.92912109 29.28310547 20.92074219 28.00371094 20.91210938 26.68554688 C20.90888672 25.47060547 20.90566406 24.25566406 20.90234375 23.00390625 C20.89448853 21.31503296 20.89448853 21.31503296 20.88647461 19.59204102 C21 17 21 17 22 16 C23.5348297 15.90680551 25.07392082 15.882542 26.61157227 15.88647461 C27.59251358 15.88655014 28.5734549 15.88662567 29.5841217 15.88670349 C30.6507756 15.89186478 31.7174295 15.89702606 32.81640625 15.90234375 C34.44569313 15.90446617 34.44569313 15.90446617 36.1078949 15.90663147 C39.59279075 15.91224952 43.07762342 15.92480508 46.5625 15.9375 C48.91861887 15.94251267 51.27473874 15.94707598 53.63085938 15.95117188 C59.42059743 15.96222482 65.21028799 15.97950154 71 16 C71 11.05 71 6.1 71 1 C47.9 1 24.8 1 1 1 C1 12.88 1 24.76 1 37 C0.67 37 0.34 37 0 37 C0 24.79 0 12.58 0 0 Z " fill="#0B0B0B" transform="translate(534,460)"/>
<path d="M0 0 C8.25 0 16.5 0 25 0 C25.33 0.99 25.66 1.98 26 3 C24.00045254 3.04254356 21.99958364 3.04080783 20 3 C19.67 2.67 19.34 2.34 19 2 C19 2.33 19 2.66 19 3 C13.72 3 8.44 3 3 3 C3 11.58 3 20.16 3 29 C7.8016221 28.92110571 7.8016221 28.92110571 12.6027832 28.81982422 C16.31447871 28.78900527 17.83533664 28.89022442 21 31 C18.23434618 31.92188461 16.61716298 32.11785222 13.76953125 32.09765625 C12.68442261 32.09390991 12.68442261 32.09390991 11.57739258 32.09008789 C10.20877075 32.07643188 10.20877075 32.07643188 8.8125 32.0625 C5.904375 32.041875 2.99625 32.02125 0 32 C0 21.44 0 10.88 0 0 Z " fill="#E1E0E1" transform="translate(441,478)"/>
<path d="M0 0 C4.62 0 9.24 0 14 0 C14 0.99 14 1.98 14 3 C10.37 3 6.74 3 3 3 C3 9.6 3 16.2 3 23 C2.67 23 2.34 23 2 23 C1.67 39.83 1.34 56.66 1 74 C0.67 74 0.34 74 0 74 C0 49.58 0 25.16 0 0 Z " fill="#D6D6D7" transform="translate(282,271)"/>
<path d="M0 0 C3.08236365 2.78407039 3.95206337 3.80825346 5 8 C-3.58 8 -12.16 8 -21 8 C-20.67 7.34 -20.34 6.68 -20 6 C-12.74 6 -5.48 6 2 6 C1.34 4.02 0.68 2.04 0 0 Z " fill="#050505" transform="translate(501,562)"/>
<path d="M0 0 C3.5624827 -0.02913821 7.12493454 -0.04684529 10.6875 -0.0625 C12.19860352 -0.07506836 12.19860352 -0.07506836 13.74023438 -0.08789062 C14.71669922 -0.09111328 15.69316406 -0.09433594 16.69921875 -0.09765625 C18.04246216 -0.10551147 18.04246216 -0.10551147 19.4128418 -0.11352539 C22.03641759 0.00159802 24.44293053 0.41765715 27 1 C26.67 1.66 26.34 2.32 26 3 C23.36 3 20.72 3 18 3 C18 2.34 18 1.68 18 1 C17.01 1.495 17.01 1.495 16 2 C10.59513542 2.3305133 5.30735995 2.11733894 0 1 C0 0.67 0 0.34 0 0 Z " fill="#1F1E1F" transform="translate(413,251)"/>
<path d="M0 0 C0.66 0.99 1.32 1.98 2 3 C1.67 4.32 1.34 5.64 1 7 C5.29 7 9.58 7 14 7 C13.67 8.32 13.34 9.64 13 11 C8.05 11 3.1 11 -2 11 C-0.875 3.125 -0.875 3.125 0 0 Z " fill="#1A1A1A" transform="translate(620,277)"/>
<path d="M0 0 C0.33 0 0.66 0 1 0 C1.33 1.65 1.66 3.3 2 5 C2.33 5 2.66 5 3 5 C3 10.28 3 15.56 3 21 C2.01 21.33 1.02 21.66 0 22 C0 14.74 0 7.48 0 0 Z " fill="#1B1A1B" transform="translate(347,297)"/>
<path d="M0 0 C0.66 0.33 1.32 0.66 2 1 C2 2.98 2 4.96 2 7 C1.01 6.67 0.02 6.34 -1 6 C-1.6875 3.9375 -1.6875 3.9375 -2 2 C-1.34 2 -0.68 2 0 2 C0 1.34 0 0.68 0 0 Z " fill="#EFEFEF" transform="translate(570,319)"/>
</svg>
